<svg xmlns="http://www.w3.org/2000/svg" viewBox="0 0 200 60">
  <path d="M26.2 38.8c.8 0 1.6-.1 2.4-.2 2.6-.5 5-2.2 5.5-4.8l-8.6-1c-.3 1.2-1.2 2-2.5 2-1.5 0-2.3-.9-2.3-2.6 0-3.3 4.8-3.4 8.7-3.9 1.1-.1 2.3-.3 3.4-.6 3.4-1 5.3-3.6 5.3-7.2 0-5.8-4.5-8.8-11.4-8.8-6.6 0-10.7 2.9-11.3 8.1l8.5.8c.2-1.5 1.4-2.4 2.9-2.4 1.5 0 2.3 1 2.3 2.7 0 2.5-3.3 2.9-7.9 3.5-5 .7-7.6 2.6-7.6 7.6 0 5 3.7 6.8 6.6 6.8zm-1.8-8.2c0-1.2 1-1.6 2.3-1.8 1.9-.3 3.8-.5 3.8-.5.1 1.6-.7 2.3-2.1 2.5-.9.2-1.9.2-2.6.2-1 0-1.4-.4-1.4-.4z" fill="#000"/>
  <path d="M57.6 12.3c-2.4 0-4.3.9-5.4 2.5V13h-8v25.2h8V24.3c0-2.5 1.5-3.9 3.9-3.9 1.7 0 2.8 1.2 2.8 3.5v14.3h8V22.4c0-6.1-3.6-10.1-9.3-10.1z" fill="#000"/>
  <path d="M83.4 12.3c-2.4 0-4.3.9-5.4 2.5V13h-8v25.2h8V24.3c0-2.5 1.5-3.9 3.9-3.9 1.7 0 2.8 1.2 2.8 3.5v14.3h8V22.4c0-6.1-3.7-10.1-9.3-10.1z" fill="#000"/>
  <path d="M106.8 12.3c-2.4 0-4.3.9-5.4 2.5V13h-8v25.2h8V24.3c0-2.5 1.5-3.9 3.9-3.9 1.7 0 2.8 1.2 2.8 3.5v14.3h8V22.4c0-6.1-3.7-10.1-9.3-10.1z" fill="#000"/>
  <path d="M129.8 28.3c0-6.4 17.6-6 17.6-6v-6h-23.7v21.9h23.7v-6.3l-17.6-3.6z" fill="#000"/>
  <path d="M156.4 13h8v25.2h-8z" fill="#000"/>
  <path d="M178.6 11.7c-7.7 0-14 6.3-14 14s6.3 14 14 14 14-6.3 14-14-6.3-14-14-14zm0 24.5c-5.8 0-10.5-4.7-10.5-10.5S172.8 15.2 178.6 15.2 189.1 19.9 189.1 25.7 184.4 36.2 178.6 36.2z" fill="#000"/>
  <path d="M165.4 46.5c22 17.2 59.8 6.5 60.5 6.3l-1.9-6.3c-.1 0-33.3 9.2-53.7-4.9l-4.9 4.9zm58.5-4.9l7.3 6.9-3.4 3.6-7.8-8.2 3.9-2.3z" fill="#FF9900"/>
</svg>
